<svg width="16" height="16" viewBox="0 0 16 16" fill="none" xmlns="http://www.w3.org/2000/svg">
<path d="M15.9648 7.67009C15.9418 7.6172 15.3777 6.36634 14.118 5.10666C12.9492 3.93919 10.9411 2.54663 8 2.54663C5.05895 2.54663 3.05079 3.93919 1.88196 5.10666C0.622281 6.36634 0.0582069 7.61517 0.0351557 7.67009C0.0119774 7.72216 0 7.77852 0 7.83551C0 7.89251 0.0119774 7.94887 0.0351557 8.00094C0.0582069 8.05314 0.622281 9.30401 1.88196 10.5637C3.05079 11.7312 5.05895 13.123 8 13.123C10.9411 13.123 12.9492 11.7312 14.118 10.5637C15.3777 9.30401 15.9418 8.05518 15.9648 8.00094C15.988 7.94887 16 7.89251 16 7.83551C16 7.77852 15.988 7.72216 15.9648 7.67009ZM8 12.3095C5.87252 12.3095 4.01487 11.5352 2.4779 10.0091C1.83363 9.36876 1.28842 8.63595 0.860251 7.83483C1.2883 7.03385 1.83353 6.30124 2.4779 5.66125C4.01487 4.13445 5.87252 3.3602 8 3.3602C10.1275 3.3602 11.9851 4.13445 13.5221 5.66125C14.1665 6.30124 14.7117 7.03385 15.1397 7.83483C14.7079 8.66264 12.5424 12.3095 8 12.3095ZM8 4.71615C7.38318 4.71615 6.78022 4.89906 6.26735 5.24174C5.75449 5.58443 5.35476 6.0715 5.11871 6.64137C4.88267 7.21123 4.82091 7.83829 4.94124 8.44326C5.06158 9.04822 5.3586 9.60392 5.79476 10.0401C6.23091 10.4762 6.78661 10.7733 7.39158 10.8936C7.99654 11.0139 8.6236 10.9522 9.19347 10.7161C9.76333 10.4801 10.2504 10.0803 10.5931 9.56748C10.9358 9.05462 11.1187 8.45165 11.1187 7.83483C11.1176 7.00804 10.7887 6.21541 10.2041 5.63078C9.61942 5.04615 8.8268 4.71723 8 4.71615ZM8 10.1399C7.54409 10.1399 7.09842 10.0048 6.71935 9.75147C6.34027 9.49818 6.04482 9.13817 5.87035 8.71696C5.69588 8.29576 5.65024 7.83228 5.73918 7.38513C5.82812 6.93798 6.04766 6.52725 6.37004 6.20487C6.69241 5.8825 7.10315 5.66295 7.5503 5.57401C7.99744 5.48507 8.46092 5.53072 8.88213 5.70519C9.30333 5.87965 9.66334 6.17511 9.91663 6.55418C10.1699 6.93326 10.3051 7.37893 10.3051 7.83483C10.3051 8.44619 10.0623 9.0325 9.62996 9.4648C9.19767 9.89709 8.61135 10.1399 8 10.1399Z" fill="#2A2A4C"/>
<line x1="1.43805" y1="1.14553" x2="13.5686" y2="14.6239" stroke="#2A2A4C"/>
<line x1="1.97118" y1="0.665435" x2="14.1048" y2="14.1411" stroke="white"/>
</svg>
